<svg version="1.1" x="0" y="0" width="100%" height="100%" viewBox="0 0 576 512" xmlns="http://www.w3.org/2000/svg" xmlns:xlink="http://www.w3.org/1999/xlink">
  <style type="text/css">.st2{stroke:none;stroke-width:1;stroke-linecap:butt;stroke-linejoin:miter;fill:#1479d7;fill-opacity:1;fill-rule:nonzero;}</style>
  <defs/>
  <path class="st2" id="复合路径1" d="M 288 0 C 146.6 0 32 114.6 32 256 C 32 397.4 146.6 512 288 512 C 429.4 512 544 397.4 544 256 C 544 114.60000000000002 429.4 0 288 0  Z M 496 256 C 496 278.34 492.367 299.82 485.82 320 C 485.82 320 462.77 320 462.77 320 C 458.411 320 454.293 318.375 451.39 315.258 C 451.39 315.258 419.29999999999995 282.678 419.29999999999995 282.678 C 414.81999999999994 278.061 414.81999999999994 270.568 419.42109999999997 265.948 C 419.42109999999997 265.948 431.9 253.5 431.9 253.5 C 431.9 253.5 431.9 244.887 431.9 244.887 C 431.9 241.891 430.81 239.02 428.63 236.899 C 428.63 236.899 419.306 227.536 419.306 227.536 C 417.126 225.419 414.21999999999997 224.169 411.193 224.169 C 411.193 224.169 395.21299999999997 224.169 395.21299999999997 224.169 C 389.037 224.169 383.953 219.05200000000002 383.953 212.93900000000002 C 383.953 209.943 385.164 207.07200000000003 387.22299999999996 204.95100000000002 C 387.22299999999996 204.95100000000002 396.66799999999995 195.58800000000002 396.66799999999995 195.58800000000002 C 398.727 193.47100000000003 401.6329999999999 192.22100000000003 404.65999999999997 192.22100000000003 C 404.65999999999997 192.22100000000003 436.63 192.22100000000003 436.63 192.22100000000003 C 442.806 192.22100000000003 448.01 187.10400000000004 448.01 180.99100000000004 C 448.01 180.99100000000004 448.01 171.6 448.01 171.6 C 448.01 165.358 442.803 160.24 436.63 160.24 C 436.63 160.24 399.94 160.24 399.94 160.24 C 391.221 160.24 383.96 167.478 383.96 176.22 C 383.96 176.22 383.96 180.712 383.96 180.712 C 383.96 187.57899999999998 379.601 193.69199999999998 373.06 195.94199999999998 C 373.06 195.94199999999998 341.45 206.42199999999997 341.45 206.42199999999997 C 338.18 207.54699999999997 336.001 210.54299999999998 336.001 214.03899999999996 C 336.001 214.03899999999996 336.001 216.15999999999997 336.001 216.15999999999997 C 336.001 220.52699999999996 332.368 224.14799999999997 328.00899999999996 224.14799999999997 C 328.00899999999996 224.14799999999997 311.89899999999994 224.14799999999997 311.89899999999994 224.14799999999997 C 307.53999999999996 224.14799999999997 303.9069999999999 220.52699999999996 303.9069999999999 216.15999999999997 C 303.9069999999999 211.78899999999996 300.3949999999999 208.17199999999997 295.9149999999999 208.17199999999997 C 295.9149999999999 208.17199999999997 292.8879999999999 208.17199999999997 292.8879999999999 208.17199999999997 C 289.86099999999993 208.17199999999997 287.0759999999999 209.91799999999998 285.6219999999999 212.53899999999996 C 285.6219999999999 212.53899999999996 276.2979999999999 231.25899999999996 276.2979999999999 231.25899999999996 C 273.5 236.6 268 239.1 261.1 239.1 C 261.1 239.1 239.8 239.1 239.8 239.1 C 230.96 239.1 223.82000000000002 231.983 223.82000000000002 223.12 C 223.82000000000002 223.12 223.82000000000002 198.8 223.82000000000002 198.8 C 223.82000000000002 194.554 225.51500000000001 190.55800000000002 228.54300000000003 187.57000000000002 C 228.54300000000003 187.57000000000002 248.64300000000003 167.47000000000003 248.64300000000003 167.47000000000003 C 253.3 162.9 255.8 156.6 255.8 150 C 255.8 146.629 257.98 143.508 261.37 142.383 C 261.37 142.383 301.33 129.15300000000002 301.33 129.15300000000002 C 303.025 128.52800000000002 304.478 127.65300000000002 305.68899999999996 126.40300000000002 C 305.68899999999996 126.40300000000002 332.56899999999996 99.69300000000001 332.56899999999996 99.69300000000001 C 334.628 97.57600000000001 335.83899999999994 94.70100000000001 335.83899999999994 91.70900000000002 C 335.83899999999994 85.46700000000001 330.75299999999993 80.34900000000002 324.57899999999995 80.34900000000002 C 324.57899999999995 80.34900000000002 303.9 80.34900000000002 303.9 80.34900000000002 C 303.9 80.34900000000002 287.8 96.33 287.8 96.33 C 287.8 96.33 287.8 104.318 287.8 104.318 C 287.8 108.685 284.288 112.306 279.808 112.306 C 279.808 112.306 263.8 112.306 263.8 112.306 C 259.44100000000003 112.306 255.80800000000002 108.685 255.80800000000002 104.318 C 255.80800000000002 104.318 255.80800000000002 84.34 255.80800000000002 84.34 C 255.80800000000002 81.84400000000001 257.019 79.473 259.07800000000003 77.973 C 259.07800000000003 77.973 296.588 48.433 296.588 48.433 C 407.3 52.99 496 144.2 496 256  Z M 170.1 149.1 C 170.1 146.1 171.311 143.225 173.49099999999999 141.1 C 173.49099999999999 141.1 198.801 115.72 198.801 115.72 C 200.981 113.595 203.887 112.345 206.79299999999998 112.345 C 213.08999999999997 112.345 218.17299999999997 117.47 218.17299999999997 123.725 C 218.17299999999997 123.725 218.17299999999997 139.725 218.17299999999997 139.725 C 218.17299999999997 142.725 216.96199999999996 145.6 214.90299999999996 147.725 C 214.90299999999996 147.725 205.45799999999997 157.1 205.45799999999997 157.1 C 203.4 159.3 200.4 160.4 197.4 160.4 C 197.4 160.4 181.4 160.4 181.4 160.4 C 175.1 160.4 170.1 155.3 170.1 149.1  Z M 304 463.2 C 304 463.2 303.8564 447.49 303.8564 447.49 C 303.75870000000003 447.4939 303.9541 447.48220000000003 303.8564 447.49 C 303.3779 439.158 296.4334 432.38 287.9064 432.38 C 287.9064 432.38 267.68640000000005 432.38 267.68640000000005 432.38 C 256.9064000000001 432.38 241.04640000000006 427.13 232.32640000000004 420.63 C 232.32640000000004 420.63 210.2 403.9 210.2 403.9 C 198.7 395.3 192 381.8 192 367.5 C 192 367.5 192 343.62 192 343.62 C 192 327.62 200.355 312.74 214.04 304.62 C 214.04 304.62 256.90999999999997 278.87 256.90999999999997 278.87 C 264.05499999999995 274.745 272.16999999999996 272.37 280.4 272.37 C 280.4 272.37 311.52 272.37 311.52 272.37 C 322.41999999999996 272.37 332.95 276.245 341.19 283.25 C 341.19 283.25 384.3 320.38 384.3 320.38 C 384.3 320.38 402.59000000000003 320.38 402.59000000000003 320.38 C 411.18800000000005 320.38 419.3 323.755 425.23 329.755 C 425.23 329.755 442.55 347.135 442.55 347.135 C 445.5 350 449.4 351.6 453.6 352 C 453.6 352 472.38 352 472.38 352 C 439.9 413.1 377.2 457.6 304 463.2  Z "/>
</svg>