<svg width="72" height="72" viewBox="0 0 72 72" fill="none" xmlns="http://www.w3.org/2000/svg">
<path fill-rule="evenodd" clip-rule="evenodd" d="M13.5 45H34.5H36H55.5C64.6127 45 72 37.6127 72 28.5C72 19.3873 64.6127 12 55.5 12C55.1382 12 54.7791 12.0116 54.4231 12.0346C50.6566 4.87901 43.1481 0 34.5 0C23.6003 0 14.5107 7.75043 12.4418 18.0409C5.48057 18.5806 0 24.4003 0 31.5C0 38.9558 6.04416 45 13.5 45Z" fill="#C7D0D7"/>
<path fill-rule="evenodd" clip-rule="evenodd" d="M13.5 45H34.5H36H55.5C64.6127 45 72 37.6127 72 28.5C72 19.3873 64.6127 12 55.5 12C55.1382 12 54.7791 12.0116 54.4231 12.0346C50.6566 4.87901 43.1481 0 34.5 0C23.6003 0 14.5107 7.75043 12.4418 18.0409C5.48057 18.5806 0 24.4003 0 31.5C0 38.9558 6.04416 45 13.5 45Z" fill="url(#paint0_linear_59_22852)"/>
<path fill-rule="evenodd" clip-rule="evenodd" d="M13.5 45H34.5H36H55.5C64.6127 45 72 37.6127 72 28.5C72 19.3873 64.6127 12 55.5 12C55.1382 12 54.7791 12.0116 54.4231 12.0346C50.6566 4.87901 43.1481 0 34.5 0C23.6003 0 14.5107 7.75043 12.4418 18.0409C5.48057 18.5806 0 24.4003 0 31.5C0 38.9558 6.04416 45 13.5 45Z" fill="url(#paint1_linear_59_22852)"/>
<path d="M0 31.5C0 24.0442 6.04416 18 13.5 18H18C27.9411 18 36 26.0589 36 36V45H13.5C6.04416 45 0 38.9558 0 31.5Z" fill="url(#paint2_radial_59_22852)"/>
<path d="M12 22.5C12 10.0736 22.0736 0 34.5 0C46.9264 0 57 10.0736 57 22.5C57 34.9264 46.9264 45 34.5 45C22.0736 45 12 34.9264 12 22.5Z" fill="url(#paint3_radial_59_22852)"/>
<circle cx="55.5" cy="28.5" r="16.5" fill="url(#paint4_radial_59_22852)"/>
<path fill-rule="evenodd" clip-rule="evenodd" d="M0 54C0 52.3431 1.34315 51 3 51H43.8C45.4569 51 46.8 52.3431 46.8 54C46.8 55.6569 45.4569 57 43.8 57H3C1.34314 57 0 55.6569 0 54ZM54 54C54 52.3431 55.3431 51 57 51H69C70.6569 51 72 52.3431 72 54C72 55.6569 70.6569 57 69 57H57C55.3431 57 54 55.6569 54 54ZM3 63C1.34315 63 0 64.3431 0 66C0 67.6569 1.34315 69 3 69H69C70.6569 69 72 67.6569 72 66C72 64.3431 70.6569 63 69 63H3Z" fill="url(#paint5_linear_59_22852)"/>
<defs>
<linearGradient id="paint0_linear_59_22852" x1="22.5" y1="10.5" x2="36" y2="45" gradientUnits="userSpaceOnUse">
<stop stop-color="#CED3D9"/>
<stop offset="1" stop-color="#F5F2ED" stop-opacity="0"/>
</linearGradient>
<linearGradient id="paint1_linear_59_22852" x1="32.0998" y1="46.5925" x2="31.1538" y2="-1.98278e-06" gradientUnits="userSpaceOnUse">
<stop offset="0.0208333" stop-color="#ACBCD7"/>
<stop offset="0.328125" stop-color="#E3EBF8" stop-opacity="0"/>
</linearGradient>
<radialGradient id="paint2_radial_59_22852" cx="0" cy="0" r="1" gradientUnits="userSpaceOnUse" gradientTransform="translate(21 40) rotate(-159.193) scale(26.7442 30.9501)">
<stop offset="0.548" stop-color="#8FABDD" stop-opacity="0"/>
<stop offset="1" stop-color="#C4C4C4"/>
</radialGradient>
<radialGradient id="paint3_radial_59_22852" cx="0" cy="0" r="1" gradientUnits="userSpaceOnUse" gradientTransform="translate(34.5 40.5) rotate(-90) scale(40.5)">
<stop offset="0.598765" stop-color="#C7DFFF" stop-opacity="0"/>
<stop offset="1" stop-color="#C4C4C4"/>
</radialGradient>
<radialGradient id="paint4_radial_59_22852" cx="0" cy="0" r="1" gradientUnits="userSpaceOnUse" gradientTransform="translate(46.7 40.6) rotate(-56.3099) scale(31.7288)">
<stop offset="0.47771" stop-color="#8FABDD" stop-opacity="0"/>
<stop offset="1" stop-color="#C4C4C4"/>
</radialGradient>
<linearGradient id="paint5_linear_59_22852" x1="43.0435" y1="69" x2="44.4725" y2="51.5313" gradientUnits="userSpaceOnUse">
<stop stop-color="#A1AFC7"/>
<stop offset="1" stop-color="#CCD3D8"/>
</linearGradient>
</defs>
</svg>
